<svg xmlns="http://www.w3.org/2000/svg" viewBox="0 0 562 120" width="562" height="120"><defs><style>.cls-1{fill:#fff;}.cls-2{isolation:isolate;}</style></defs><title>sword-point-white</title><g id="Wordmark"><path class="cls-1" d="M150.66439,35.173q10.50221,0,14.56885,1.23389,4.06568,1.23412,4.06543,4.76758a7.79023,7.79023,0,0,1-2.61328,5.75976q-10.16456-4.64647-18.877-4.64648-6.14723,0-8.688,2.44433a8.92927,8.92927,0,0,0-2.541,6.752,9.05988,9.05988,0,0,0,3.02491,7.16357q3.02417,2.66235,11.4956,5.32422,10.0188,3.00147,15.17383,6.89746,5.15478,3.89649,5.44531,12.6084,0,9.728-6.65527,14.71387-6.65551,4.98633-20.353,4.98535-9.53613,0-14.47217-1.35547-4.93651-1.35351-4.937-5.0332a7.80172,7.80172,0,0,1,2.80762-5.90528,41.09451,41.09451,0,0,0,19.94141,5.22754q7.11474,0,10.11572-2.32324,3.00074-2.32324,3.001-7.16309,0-5.80811-4.332-8.71289Q152.503,75.00792,143.01693,72.006q-9.197-2.80518-13.09277-7.042-3.89649-4.23486-3.89648-11.1084a16.497,16.497,0,0,1,6.36474-13.625Q138.75644,35.17394,150.66439,35.173Z"/><path class="cls-1" d="M236.58676,60.24473q-1.59741,4.88966-6.87305,21.90185-5.27563,17.01417-7.06641,19.02149a6.33537,6.33537,0,0,1-4.98535,2.00879q-4.84058,0-5.30029-.53223-.4607-.53321-4.477-18.97363-4.01806-18.44093-4.45313-18.44092t-4.33154,16.96533q-3.89721,16.96436-5.66308,18.97266a6.08609,6.08609,0,0,1-4.81592,2.00879q-6.05127,0-6.53418-.53223-.48486-.53321-4.40479-17.03711-3.92066-16.50439-4.96093-19.6997a20.31,20.31,0,0,0-1.8877-4.47706A3.86918,3.86918,0,0,0,169.139,59.8336a7.74166,7.74166,0,0,0-2.541-.31494,6.6918,6.6918,0,0,1-.6294-2.85547,1.83024,1.83024,0,0,1,1.40381-1.98438,38.5188,38.5188,0,0,1,7.26026-.38721,16.13207,16.13207,0,0,1,4.81591.48389,3.17482,3.17482,0,0,1,1.8877,1.69385,27.90468,27.90468,0,0,1,1.2583,5.6875q.70165,4.47729,3.63037,18.46533,2.92822,13.9878,3.38819,13.98828.45922,0,4.06542-15.99707,3.60572-15.99756,5.10645-24.08008,8.80884-.24169,10.18848.1211a2.94637,2.94637,0,0,1,1.98486,1.57324,25.70554,25.70554,0,0,1,1.355,5.66309q.75,4.45313,3.82373,18.58593,3.07325,14.13428,3.5332,14.13379.46,0,4.06592-14.83594,3.605-14.83446,4.13819-19.52978h-2.75879a6.91784,6.91784,0,0,1-.62891-2.85547,2.91688,2.91688,0,0,1,.55664-2.0332,2.501,2.501,0,0,1,1.86328-.58057h12.53613a6.82037,6.82037,0,0,1,.62891,2.90381,2.59432,2.59432,0,0,1-.62891,2.0332,3.41363,3.41363,0,0,1-2.17822.53223Z"/><path class="cls-1" d="M257.94174,103.17686q-10.50366,0-15.44043-5.56641-4.93653-5.56494-4.937-16.79492,0-12.92284,5.978-20.08691,5.97657-7.16237,17.25489-7.16309,10.50219,0,15.44043,5.56592,4.93652,5.56713,4.93652,16.84424,0,12.8745-5.97754,20.03808Q269.2186,103.17685,257.94174,103.17686Zm1.83935-6.48535q5.51734,0,7.98584-4.16309,2.469-4.16161,2.46875-12.82617,0-9.96973-2.541-14.811-2.54151-4.83911-8.73682-4.83984-5.51733,0-7.98633,4.1626-2.46825,4.16309-2.46826,12.875,0,9.92284,2.541,14.76172Q253.58578,96.692,259.78109,96.69151Z"/><path class="cls-1" d="M279.92563,56.71153a1.57066,1.57066,0,0,1,1.0166-1.66993q1.01586-.36327,12.82666-.75a30.1373,30.1373,0,0,1,0,5.95313,36.37631,36.37631,0,0,1,10.334-5.03369,33.43831,33.43831,0,0,1,9.02637-1.40381,3.55075,3.55075,0,0,1,1.81543.31494q.45849.31494.46,1.3794a16.80007,16.80007,0,0,1-.65332,4.45263,5.40239,5.40239,0,0,1-1.57324,3.001,7.81477,7.81477,0,0,1-3.04981.96826,6.38476,6.38476,0,0,1-2.49219.145,16.153,16.153,0,0,1-2.20214-2.66211,9.29114,9.29114,0,0,0-6.97071,2.73486q-2.66161,2.73488-2.66211,11.01123.04835,14.85938.3877,22.07129H303.013a6.38477,6.38477,0,0,1,.581,2.71094,2.373,2.373,0,0,1-.53221,1.79,3.11029,3.11029,0,0,1-2.03321.48437H280.555a7.72974,7.72974,0,0,1-.62939-2.90429,2.0836,2.0836,0,0,1,.53271-1.57324,2.46954,2.46954,0,0,1,1.74219-.50782h3.33984q.38672-7.21142.3877-18.877,0-14.27782-1.11328-16.55322Q283.7,59.51938,280.555,59.51866A6.58625,6.58625,0,0,1,279.92563,56.71153Z"/><path class="cls-1" d="M344.50326,98.337a36.1697,36.1697,0,0,1-8.22851,3.72657,28.07425,28.07425,0,0,1-7.88868,1.11328q-8.22948,0-12.65722-4.93653-4.4297-4.93651-4.42871-17.13476,0-13.45459,5.90429-20.49756,5.9048-7.043,17.667-7.04248a31.72152,31.72152,0,0,1,4.69531.29q1.88671.29077,3.58105.72607,0-3.5808-.16894-7.67138a26.55324,26.55324,0,0,0-.67774-5.78418,3.11531,3.11531,0,0,0-1.69433-2.17823,8.09747,8.09747,0,0,0-3.02442-.48388,7.587,7.587,0,0,1-.62988-2.95264,1.75,1.75,0,0,1,1.21-1.88721q1.20995-.38745,7.98633-.3872a23.89692,23.89692,0,0,1,5.17969.36279q1.35351.36329,1.54883,1.35547a20.563,20.563,0,0,1,.19335,3.41211V73.02256q0,18.49072.84668,21.53906.84669,3.04981,2.6377,2.66211a4.17756,4.17756,0,0,1,.67773,2.17774q0,1.35644-3.21875,2.56543a15.74693,15.74693,0,0,1-5.251,1.21,2.72183,2.72183,0,0,1-2.03321-.84668A16.05686,16.05686,0,0,1,344.50326,98.337ZM333.22592,60.05137q-5.8081,0-8.39746,4.0415-2.58985,4.04151-2.58985,13.96387,0,8.71288,2.46875,13.67383,2.46826,4.96143,8.3252,4.96094a12.90269,12.90269,0,0,0,5.66308-1.23438,7.0139,7.0139,0,0,0,3.50879-3.24316q.94337-2.0083.94336-9.89844V62.568a22.57093,22.57093,0,0,0-4.23437-1.74219A19.1788,19.1788,0,0,0,333.22592,60.05137Z"/><path class="cls-1" d="M379.13021,41.12608H373.516a9.19238,9.19238,0,0,1-.58106-3.04932,1.90209,1.90209,0,0,1,.50781-1.47607,2.46227,2.46227,0,0,1,1.66993-.46H394.474q18.14942,0,24.418,4.45312,6.26807,4.45386,6.26856,14.56885,0,10.50366-7.50293,16.311-7.50292,5.8081-24.97461,5.8086H390.2142q.09668,14.9077.38672,19.9414h7.40625a7.55071,7.55071,0,0,1,.58008,2.80762,1.81356,1.81356,0,0,1-2.17774,2.17773H373.17709a8.57475,8.57475,0,0,1-.62988-3.04882,1.90277,1.90277,0,0,1,.50879-1.47657,2.45967,2.45967,0,0,1,1.66992-.46h4.40429q.38673-6.72656.38672-34.51025Q379.51693,47.85484,379.13021,41.12608ZM394.1351,71.18369q10.64647,0,14.90722-3.0498,4.2583-3.04834,4.25977-10.30908,0-6.96973-4.01758-10.79346-4.01807-3.82324-13.165-3.82373a28.82978,28.82978,0,0,0-5.51855.48389q-.38671,4.16309-.38672,19.60254v7.88964Z"/><path class="cls-1" d="M440.4642,103.17686q-10.50439,0-15.44043-5.56641-4.93653-5.56494-4.93652-16.79492,0-12.92284,5.97754-20.08691,5.97655-7.16237,17.25488-7.16309,10.50293,0,15.44043,5.56592,4.93651,5.56713,4.93652,16.84424,0,12.8745-5.97755,20.03808Q451.74106,103.17685,440.4642,103.17686Zm1.83887-6.48535q5.51807,0,7.98632-4.16309,2.46826-4.16161,2.46875-12.82617,0-9.96973-2.541-14.811-2.54151-4.83911-8.73633-4.83984-5.51806,0-7.98633,4.1626-2.46826,4.16309-2.46875,12.875,0,9.92284,2.541,14.76172Q436.10824,96.692,442.30307,96.69151Z"/><path class="cls-1" d="M478.42123,97.22373h5.12988a5.98662,5.98662,0,0,1,.62989,2.71094,2.36875,2.36875,0,0,1-.53321,1.79,3.20792,3.20792,0,0,1-2.08105.48437H462.54525a8.28121,8.28121,0,0,1-.58105-2.90429,2.15006,2.15006,0,0,1,.50781-1.57324,2.46012,2.46012,0,0,1,1.76758-.50782h3.58105q.33838-6.72656.33887-15.77929,0-11.03467-.16894-14.7378a15.88606,15.88606,0,0,0-.79883-5.10644,2.889,2.889,0,0,0-1.7666-1.74268,10.103,10.103,0,0,0-2.832-.33886,4.41576,4.41576,0,0,1-.62891-2.37159,2.23434,2.23434,0,0,1,1.88769-2.41992,39.25684,39.25684,0,0,1,7.3086-.43555,23.87959,23.87959,0,0,1,5.17871.3628q1.355.36327,1.54883,1.35547a20.42393,20.42393,0,0,1,.19433,3.41211V81.44444Q478.08236,90.49571,478.42123,97.22373Zm-6.873-51.209a6.94276,6.94276,0,0,1-4.64648-1.30664,4.7355,4.7355,0,0,1-1.501-3.77539,5.43593,5.43593,0,0,1,1.93653-4.25928,8.0037,8.0037,0,0,1,5.32421-1.59766q3.38673,0,4.83985,1.3794a4.86872,4.86872,0,0,1,1.45215,3.70312,5.44576,5.44576,0,0,1-1.791,4.23487Q475.37095,46.01548,471.54818,46.01475Z"/><path class="cls-1" d="M495.8558,60.003a38.22317,38.22317,0,0,1,9.46191-4.69531,27.69641,27.69641,0,0,1,8.34961-1.50049q6.43653,0,9.70508,2.97705,3.26661,2.97657,3.2666,11.34961,0,26.04053.75,27.58984.75,1.54834,3.46094,1.5a7.88238,7.88238,0,0,1,.53223,2.80762,1.78533,1.78533,0,0,1-.82227,1.74219,7.2825,7.2825,0,0,1-3.0498.43554q-6.728,0-8.22852-.16894a2.5816,2.5816,0,0,1-2.03222-1.0166,5.575,5.575,0,0,1-.53223-2.832V77.33018q0-9.96973-2.10547-13.26172-2.10645-3.29078-6.80078-3.291a10.98336,10.98336,0,0,0-6.94531,2.27491q-2.92969,2.27564-2.92871,8.1792V81.44444q0,8.56786.33886,15.77929h5.37305a6.39867,6.39867,0,0,1,.58008,2.71094,2.37294,2.37294,0,0,1-.53223,1.79,3.11026,3.11026,0,0,1-2.0332.48437H482.64193a7.72853,7.72853,0,0,1-.6289-2.90429,2.08352,2.08352,0,0,1,.53222-1.57324,2.46956,2.46956,0,0,1,1.74219-.50782h3.33985q.38671-7.69629.38769-18.877,0-14.27782-1.11328-16.55322-1.11474-2.27418-4.25977-2.2749a6.58569,6.58569,0,0,1-.6289-2.80713,1.57066,1.57066,0,0,1,1.0166-1.66993q1.01514-.36327,12.82617-.75A27.84989,27.84989,0,0,1,495.8558,60.003Z"/><path class="cls-1" d="M532.1185,54.77549h3.291l3.9209-13.74609a15.3876,15.3876,0,0,1,3.46094,1.50049,5.87442,5.87442,0,0,1,2.10547,2.05712q.67675,1.18653.67675,8.20411v1.98437h15.92481a9.85119,9.85119,0,0,1,.58008,3.38818,2.44542,2.44542,0,0,1-.53223,1.86329,3.44257,3.44257,0,0,1-2.12891.46H545.57357V83.381q0,8.17968,1.501,10.76953a5.21168,5.21168,0,0,0,4.52539,2.73438,16.04168,16.04168,0,0,0,7.42969-1.98438,6.16129,6.16129,0,0,1,1.06444,3.48438q0,2.56639-2.831,3.43652a33.0675,33.0675,0,0,1-8.92969.87207q-6.63282,0-9.65625-2.71094-3.02637-2.71-3.02539-10.11621v-11.374q0-9.293-.53223-18.00537h-4.74316a10.67246,10.67246,0,0,1-.58106-3.38819,2.48621,2.48621,0,0,1,.53223-1.7666A2.40468,2.40468,0,0,1,532.1185,54.77549Z"/></g><g id="Icon" class="cls-2"><path class="cls-1" d="M42.78665,45.94,42.765,74.78678c-.00116.68738.55469,11.58667,1.2403,11.58606.68518.001,1.24151-10.89813,1.24249-11.58642l.02-28.84742c.0003-.76922-.82813-1.45367-1.23889-1.88623C43.61837,44.4846,42.787,45.1696,42.78665,45.94Z"/><path class="cls-1" d="M43.9216.1453A43.73956,43.73956,0,0,0,.24154,43.84452c0,13.83808,3.00208,18.32453,26.36158,53.231,4.05828,6.06488,8.65661,12.93762,14.00939,21.00476a3.97268,3.97268,0,0,0,6.61817,0c5.28924-7.96918,9.84521-14.781,13.86377-20.79022,23.48926-35.11035,26.50714-39.62329,26.50714-53.4455A43.7395,43.7395,0,0,0,43.9216.1453ZM39.05941,18.27348a6.9953,6.9953,0,1,1-2.04016,4.9367A6.92147,6.92147,0,0,1,39.05941,18.27348ZM51.702,88.03959,45.49771,98.51487a1.8939,1.8939,0,0,1-3.01715,0l-6.19226-10.461a7.61206,7.61206,0,0,1-1.50745-4.17865l3.4646-36.55255a2.36988,2.36988,0,0,1,2.35773-2.36432l3.26507-1.38049c.0539,0,.09235.00445.134.00806a1.38056,1.38056,0,0,1,.18592-.01142l3.26062,1.37714A2.3638,2.3638,0,0,1,49.804,47.31358l3.40784,36.54748A7.62554,7.62554,0,0,1,51.702,88.03959ZM66.114,42.12351a2.06465,2.06465,0,0,1-2.92535.0008l-4.19928-4.21125-8.64771-.00354c-.49377,1.78748-1.02087,1.47907-1.46655,3.64008,0,0-.28662,1.61127-1.56354,1.217a11.32556,11.32556,0,0,0-3.33826-.51428,11.208,11.208,0,0,0-3.19043.46527A1.18837,1.18837,0,0,1,39.117,41.829c-.414-2.27112-.92426-2.07056-1.40082-3.925L29.105,37.89842l-4.221,4.23291A2.072,2.072,0,0,1,21.95791,39.197l4.8274-4.841a2.06694,2.06694,0,0,1,1.46331-.60785l31.59906.01629a2.06544,2.06544,0,0,1,1.46271.60828l4.804,4.81763A2.07851,2.07851,0,0,1,66.114,42.12351Z"/></g></svg>